<?xml version="1.0" encoding="utf-8"?>
<!-- Generator: Adobe Illustrator 26.0.0, SVG Export Plug-In . SVG Version: 6.00 Build 0)  -->
<svg version="1.1" id="Layer_1" xmlns="http://www.w3.org/2000/svg" xmlns:xlink="http://www.w3.org/1999/xlink" x="0px" y="0px"
	 viewBox="0 0 5119.9 409.8" enable-background="new 0 0 5119.9 409.8" xml:space="preserve">
<g id="Lockup">
	<g>
		<g>
			<path fill="#1C2B33" d="M728.7,22.8h75.2l127.9,231.4l127.9-231.4h73.6V403H1072V111.6L959.8,313.4h-57.6L790.1,111.6V403h-61.4
				V22.8z"/>
			<path fill="#1C2B33" d="M1331.3,409.8c-28.4,0-53.4-6.3-75-18.9c-21.3-12.4-38.8-30.5-50.4-52.3c-12-22.3-18.1-47.8-18.1-76.6
				c0-29.1,5.9-54.9,17.7-77.4c11.8-22.4,28.1-40,49-52.7c20.9-12.7,44.9-19,72.1-19c27,0,50.2,6.4,69.7,19.1
				c19.5,12.8,34.4,30.6,44.9,53.6c10.5,23,15.7,50,15.8,80.9v16.8h-208.3c3.8,23.2,13.2,41.4,28.1,54.7s33.8,20,56.6,20
				c18.3,0,34-2.7,47.3-8.1c13.2-5.4,25.6-13.7,37.2-24.7l32.6,39.9C1418.1,394.9,1378.4,409.8,1331.3,409.8z M1376.1,184.3
				c-12.9-13.1-29.7-19.7-50.5-19.7c-20.3,0-37.2,6.7-50.9,20.1c-13.7,13.4-22.3,31.4-25.9,54h149.4
				C1396.3,215.5,1388.9,197.4,1376.1,184.3z"/>
			<path fill="#1C2B33" d="M1531.4,170H1475v-50.2h56.5V36.7h59.2v83.1h85.8V170h-85.8v127.4c0,21.2,3.6,36.3,10.9,45.3
				c7.2,9.1,19.6,13.6,37.2,13.6c6.6,0.1,13.2-0.3,19.8-0.9c5.4-0.6,11.4-1.5,17.9-2.6v49.7c-7.4,2.2-15,3.8-22.7,4.9
				c-8.8,1.3-17.6,1.9-26.5,1.9c-63.9,0-95.9-34.9-95.9-104.8V170z"/>
			<path fill="#1C2B33" d="M1985,403h-58.1v-39.6c-10,14.6-23.6,26.4-39.4,34.4c-15.9,8.1-34,12.1-54.3,12.1
				c-25,0-47.1-6.4-66.4-19.1c-19.3-12.8-34.4-30.3-45.5-52.7c-11-22.4-16.6-47.9-16.6-76.7c0-29,5.6-54.6,16.8-76.9
				c11.2-22.3,26.7-39.7,46.6-52.4c19.8-12.7,42.6-19,68.3-19c19.4,0,36.8,3.8,52.1,11.3c15.2,7.3,28.3,18.3,38.3,31.9v-36.4h58.1
				V403z M1925.8,218.9c-6.3-16.1-16.3-28.8-30-38.2c-13.7-9.3-29.5-14-47.4-14c-25.3,0-45.5,8.5-60.6,25.5c-15,17-22.5,40-22.5,69
				c0,29.1,7.2,52.2,21.7,69.2c14.5,17,34.1,25.5,58.9,25.5c18.3,0,34.6-4.7,48.9-14.1c14.1-9.1,24.9-22.4,31-38L1925.8,218.9z"/>
			<path fill="#1C2B33" d="M2154.4,170h-56.5v-50.2h56.5v-14.1c0-34.2,9.1-60.4,27.4-78.5C2200.1,9.1,2224.5,0,2254.9,0
				c8.3,0,16.6,0.6,24.8,1.9c7.6,1.1,15.1,2.8,22.4,4.9v49.2c-9.6-1.8-17.3-3-23.2-3.5c-5.9-0.5-11.8-0.8-17.8-0.8
				c-31.7,0-47.5,17.7-47.5,53v15.2h84.7V170h-84.7v233h-59.2L2154.4,170z"/>
			<path fill="#1C2B33" d="M2329.4,338.9c-12.2-22.3-18.3-48.1-18.3-77.4c0-29.5,6.1-55.4,18.3-77.7c11.8-21.8,29.5-39.9,51.1-52.1
				c21.8-12.5,47.1-18.7,75.9-18.7c28.8,0,54.1,6.2,75.9,18.7c21.6,12.2,39.3,30.3,51.1,52.1c12.2,22.3,18.3,48.2,18.3,77.7
				c0,29.3-6.1,55.1-18.3,77.4c-11.8,21.8-29.5,39.9-51.1,52.1c-21.8,12.5-47.1,18.7-75.9,18.7c-28.6,0-53.9-6.2-75.8-18.7
				C2359,378.8,2341.2,360.8,2329.4,338.9z M2541.1,261.5c0-28.4-7.7-51.2-23.2-68.4c-15.5-17.2-36-25.8-61.5-25.8
				c-25.5,0-46,8.6-61.5,25.8c-15.5,17.2-23.2,40-23.2,68.4c0,28.2,7.7,51,23.2,68.2c15.5,17.2,36,25.8,61.5,25.8
				c25.5,0,46-8.6,61.5-25.8C2533.4,312.5,2541.1,289.8,2541.1,261.5z"/>
			<path fill="#1C2B33" d="M2652.2,119.8h58.4v43.5c18.3-31.7,43.3-47.5,75-47.5c10.3,0,18.7,0.9,25.3,2.7V173
				c-8.9-1.3-17.9-1.9-26.9-1.9c-35.5,0-59.7,15.9-72.5,47.8V403h-59.2L2652.2,119.8z"/>
			<path fill="#1C2B33" d="M2933,22.8h155.6c43.3,0,76,8.7,98.2,26.2c22.2,17.5,33.3,41.5,33.3,72.1c0,42-20.3,70.2-60.8,84.7
				c52.9,13.4,79.3,44.4,79.3,92.9c0,32.8-11.8,58.3-35.4,76.7c-23.6,18.4-57.5,27.6-101.7,27.6H2933V22.8z M3081.2,185.5
				c50.5,0,75.8-18.4,75.8-55.1c0-18.3-5.9-31.7-17.8-40.2c-11.9-8.5-30.2-12.8-55-12.8h-89.9v108.1H3081.2z M3099.4,348.4
				c50.7,0,76-19,76-57c0-17.6-6-30.8-17.9-39.8c-11.9-9-32.6-13.4-61.9-13.4h-101.3v110.3H3099.4z"/>
			<path fill="#1C2B33" d="M3532,403h-58.4v-40.7c-21.7,31.7-51.8,47.5-90.2,47.5c-33.3,0-58.9-10.5-76.7-31.5
				c-17.8-21-26.8-51.1-26.8-90.2V119.8h59.2v161.3c0,26.3,4.6,45.7,13.9,58.2c9.2,12.6,23.7,18.9,43.5,18.9
				c17,0,32.1-4.5,45.3-13.4c13.2-9,23.5-21.5,31-37.6V119.8h59.2V403z"/>
			<path fill="#1C2B33" d="M3790.8,385.8c-21,16-49.2,24-84.5,24c-29.9,0-55.9-5.2-78.1-15.8s-38.7-24.6-49.6-42.4l39.9-34.8
				c8.3,12.7,19.8,22.7,34.5,30.1c14.7,7.4,32.1,11.1,52.4,11.1c37.8,0,56.8-11,56.8-33.1c0-9.4-3.1-17-9.4-22.7
				c-6.2-5.7-16.5-9.7-30.8-12.1l-54.6-9.5c-25.7-4.5-45.4-13.7-58.9-27.4c-13.6-13.8-20.4-31.5-20.4-53.2
				c0-26.2,10.5-47.3,31.4-63.3c20.9-15.9,49.2-23.9,84.9-23.9c25.9,0,49.1,5.3,69.7,15.9c20.5,10.6,35.8,24.3,45.8,41.1l-41,31
				c-6.9-11.2-17.1-20.1-30.7-26.6c-13.6-6.5-29.3-9.8-47.3-9.8c-16.8,0-29.8,2.9-39,8.7c-9.1,5.8-13.7,13.9-13.7,24.2
				c0,8.9,2.8,15.8,8.4,20.6c5.6,4.9,15,8.5,28.2,10.9l61.4,10.9c24.6,4.3,43.5,13.6,56.5,27.8c13,14.2,19.6,32.1,19.6,53.6
				C3822.3,348.2,3811.8,369.7,3790.8,385.8z"/>
			<path fill="#1C2B33" d="M3876.1,71.8c-7.2-7.1-10.9-16.2-10.9-27.3c0-11.2,3.6-20.4,10.9-27.4c7.2-7.1,16.6-10.6,28-10.6
				c11.4,0,20.7,3.5,28,10.6c7.2,7.1,10.9,16.2,10.9,27.4c0,11-3.6,20.1-10.9,27.3c-7.2,7.2-16.6,10.7-28,10.7
				C3892.7,82.6,3883.3,79,3876.1,71.8z M3874.5,119.8h59.2V403h-59.2V119.8z"/>
			<path fill="#1C2B33" d="M3998.8,119.8h58.4V161c21.9-32,52.4-48.1,91.5-48.1c33.7,0,59.6,10.5,77.7,31.5
				c18.1,21,27.2,51.1,27.2,90.2V403h-59.2V241.7c0-26.4-4.7-45.9-14.1-58.4s-24.2-18.7-44.3-18.7c-17.6,0-33,4.5-46.4,13.6
				c-13.4,9.1-23.9,21.7-31.5,38V403h-59.2V119.8z"/>
			<path fill="#1C2B33" d="M4442.6,409.8c-28.4,0-53.4-6.3-75-18.9c-21.3-12.4-38.8-30.5-50.4-52.3c-12-22.3-18.1-47.8-18.1-76.6
				c0-29.1,5.9-54.9,17.7-77.4c11.8-22.4,28.1-40,49-52.7c20.9-12.7,44.9-19,72.1-19c27,0,50.2,6.4,69.7,19.1
				c19.5,12.8,34.4,30.6,44.9,53.6c10.5,23,15.7,50,15.8,80.9v16.8H4360c3.8,23.2,13.2,41.4,28.1,54.7s33.8,20,56.6,20
				c18.3,0,34-2.7,47.3-8.1c13.2-5.4,25.6-13.7,37.2-24.7l32.6,39.9C4529.4,394.9,4489.7,409.8,4442.6,409.8z M4487.4,184.3
				c-12.9-13.1-29.7-19.7-50.5-19.7c-20.3,0-37.3,6.7-50.9,20.1c-13.7,13.4-22.3,31.4-25.9,54h149.4
				C4507.6,215.5,4500.2,197.4,4487.4,184.3L4487.4,184.3z"/>
			<path fill="#1C2B33" d="M4811.1,385.8c-21,16-49.2,24-84.5,24c-29.9,0-55.9-5.2-78.1-15.8s-38.7-24.6-49.6-42.4l39.9-34.8
				c8.3,12.7,19.8,22.7,34.5,30.1c14.7,7.4,32.1,11.1,52.4,11.1c37.8,0,56.8-11,56.8-33.1c0-9.4-3.1-17-9.4-22.7
				c-6.2-5.7-16.5-9.7-30.8-12.1l-54.6-9.5c-25.7-4.5-45.4-13.7-58.9-27.4c-13.6-13.8-20.4-31.5-20.4-53.2
				c0-26.2,10.5-47.3,31.4-63.3c20.9-15.9,49.2-23.9,84.9-23.9c25.9,0,49.1,5.3,69.7,15.9c20.5,10.6,35.8,24.3,45.8,41.1l-41,31
				c-6.9-11.2-17.1-20.1-30.7-26.6c-13.6-6.5-29.3-9.8-47.3-9.8c-16.8,0-29.8,2.9-39,8.7c-9.1,5.8-13.7,13.9-13.7,24.2
				c0,8.9,2.8,15.8,8.4,20.6c5.6,4.9,15,8.5,28.2,10.9l61.4,10.9c24.6,4.3,43.5,13.6,56.5,27.8c13,14.2,19.6,32.1,19.6,53.6
				C4842.6,348.2,4832.1,369.7,4811.1,385.8z"/>
			<path fill="#1C2B33" d="M5088.4,385.8c-21,16-49.2,24-84.5,24c-29.9,0-55.9-5.2-78.1-15.8s-38.7-24.6-49.6-42.4l39.9-34.8
				c8.3,12.7,19.8,22.7,34.5,30.1c14.7,7.4,32.1,11.1,52.4,11.1c37.8,0,56.8-11,56.8-33.1c0-9.4-3.1-17-9.4-22.7
				c-6.2-5.7-16.5-9.7-30.8-12.1l-54.6-9.5c-25.7-4.5-45.4-13.7-58.9-27.4c-13.6-13.8-20.4-31.5-20.4-53.2
				c0-26.2,10.5-47.3,31.4-63.3c20.9-15.9,49.2-23.9,84.9-23.9c25.9,0,49.1,5.3,69.7,15.9c20.5,10.6,35.8,24.3,45.8,41.1l-41,31
				c-6.9-11.2-17.1-20.1-30.7-26.6c-13.6-6.5-29.3-9.8-47.3-9.8c-16.8,0-29.8,2.9-39,8.7c-9.1,5.8-13.7,13.9-13.7,24.2
				c0,8.9,2.8,15.8,8.4,20.6c5.6,4.9,15,8.5,28.2,10.9l61.4,10.9c24.6,4.3,43.5,13.6,56.5,27.8c13,14.2,19.6,32.1,19.6,53.6
				C5119.9,348.2,5109.4,369.7,5088.4,385.8z"/>
		</g>
		<g>
			
				<linearGradient id="SVGID_1_" gradientUnits="userSpaceOnUse" x1="339.4344" y1="198.4557" x2="204.5964" y2="375.1404" gradientTransform="matrix(1 0 0 -1 0 410)">
				<stop  offset="6.000000e-04" style="stop-color:#0867DF"/>
				<stop  offset="0.4539" style="stop-color:#0668E1"/>
				<stop  offset="0.8591" style="stop-color:#0064E0"/>
			</linearGradient>
			<path fill="url(#SVGID_1_)" d="M173,6.9c-0.2,0-0.4,0-0.6,0l-0.8,65.4c0.2,0,0.4,0,0.5,0l0,0c43,0,76.4,33.9,149,156.1l4.4,7.4
				l0.3,0.5l40.6-60.9l-0.3-0.5l0,0c-9.6-15.5-18.7-29.8-27.5-42.9c-10.2-15.1-20-28.6-29.5-40.7C261.1,30.2,221,6.9,173,6.9z"/>
			
				<linearGradient id="SVGID_00000029751443454399967050000015986573312483441290_" gradientUnits="userSpaceOnUse" x1="76.9322" y1="312.9106" x2="169.372" y2="383.0902" gradientTransform="matrix(1 0 0 -1 0 410)">
				<stop  offset="0.1323" style="stop-color:#0064DF"/>
				<stop  offset="0.9988" style="stop-color:#0064E0"/>
			</linearGradient>
			<path fill="url(#SVGID_00000029751443454399967050000015986573312483441290_)" d="M172.4,6.9C124.1,7.1,81.4,38.3,50.6,86.1
				c-0.1,0.1-0.2,0.3-0.3,0.4l56.6,30.8c0.1-0.1,0.2-0.3,0.3-0.4c18-27.1,40.4-44.4,64.4-44.6c0.2,0,0.4,0,0.5,0L173,6.9
				C172.8,6.9,172.6,6.9,172.4,6.9z"/>
			
				<linearGradient id="SVGID_00000051361411006739149710000015872678538375781055_" gradientUnits="userSpaceOnUse" x1="37.7506" y1="209.9249" x2="74.8316" y2="303.2691" gradientTransform="matrix(1 0 0 -1 0 410)">
				<stop  offset="1.470000e-02" style="stop-color:#0072EC"/>
				<stop  offset="0.6881" style="stop-color:#0064DF"/>
			</linearGradient>
			<path fill="url(#SVGID_00000051361411006739149710000015872678538375781055_)" d="M50.6,86.1c-0.1,0.1-0.2,0.3-0.3,0.4
				C30.1,118,15,156.7,6.9,198.4c0,0.2-0.1,0.4-0.1,0.5l63.5,15c0-0.2,0.1-0.4,0.1-0.5c6.8-36.7,19.7-70.7,36.5-96.1
				c0.1-0.1,0.2-0.3,0.3-0.4L50.6,86.1z"/>
			
				<linearGradient id="SVGID_00000183954508460563392690000001356831930840655777_" gradientUnits="userSpaceOnUse" x1="32.7153" y1="142.492" x2="37.0058" y2="199.4998" gradientTransform="matrix(1 0 0 -1 0 410)">
				<stop  offset="7.310000e-02" style="stop-color:#007CF6"/>
				<stop  offset="0.9943" style="stop-color:#0072EC"/>
			</linearGradient>
			<path fill="url(#SVGID_00000183954508460563392690000001356831930840655777_)" d="M70.4,213.4l-63.5-15c0,0.2-0.1,0.4-0.1,0.5
				c-4.4,22.9-6.7,46.3-6.8,69.6c0,0.2,0,0.4,0,0.6l65.2,5.8c0-0.2,0-0.4,0-0.6c0-1.4,0-2.7,0-4.1c0-18.9,1.8-37.8,5.2-56.4
				C70.3,213.8,70.4,213.6,70.4,213.4z"/>
			
				<linearGradient id="SVGID_00000052822646644525744050000007302130113450951047_" gradientUnits="userSpaceOnUse" x1="35.0844" y1="111.5273" x2="32.0154" y2="134.3676" gradientTransform="matrix(1 0 0 -1 0 410)">
				<stop  offset="7.310000e-02" style="stop-color:#007FF9"/>
				<stop  offset="1" style="stop-color:#007CF6"/>
			</linearGradient>
			<path fill="url(#SVGID_00000052822646644525744050000007302130113450951047_)" d="M67.1,295.4c-1.2-6.7-1.8-13.5-2-20.3
				c0-0.2,0-0.4,0-0.6L0,268.6c0,0.2,0,0.4,0,0.6v0c-0.1,13.7,1.1,27.3,3.6,40.8c0,0.2,0.1,0.4,0.1,0.5l63.6-14.6
				C67.2,295.7,67.2,295.5,67.1,295.4z"/>
			
				<linearGradient id="SVGID_00000178889740463084695920000013977652851996843156_" gradientUnits="userSpaceOnUse" x1="33.2729" y1="105.5265" x2="52.3995" y2="64.9591" gradientTransform="matrix(1 0 0 -1 0 410)">
				<stop  offset="7.310000e-02" style="stop-color:#007FF9"/>
				<stop  offset="1" style="stop-color:#0082FB"/>
			</linearGradient>
			<path fill="url(#SVGID_00000178889740463084695920000013977652851996843156_)" d="M82,329.1c-7.1-7.7-12.1-18.9-14.7-33.2
				c0-0.2-0.1-0.4-0.1-0.5L3.6,310c0,0.2,0.1,0.4,0.1,0.5c4.8,25.2,14.2,46.3,27.7,62.2c0.1,0.1,0.2,0.3,0.4,0.4l50.6-43.6
				C82.2,329.4,82.1,329.2,82,329.1z"/>
			<path fill="#0082FB" d="M270.3,148.2c-38.3,58.8-61.5,95.6-61.5,95.6c-51,80-68.7,97.9-97.1,97.9c-11.9,0-21.8-4.2-29.3-12.3
				c-0.1-0.1-0.3-0.3-0.4-0.4l-50.6,43.6c0.1,0.1,0.2,0.3,0.4,0.4c18.6,21.7,44.9,33.8,77.5,33.8c49.2,0,84.6-23.2,147.6-133.2
				c0,0,26.2-46.3,44.3-78.3C289.9,177.3,279.8,161.7,270.3,148.2z"/>
			
				<linearGradient id="SVGID_00000081637981827312156020000010402231594693661330_" gradientUnits="userSpaceOnUse" x1="327.2454" y1="301.8143" x2="352.5314" y2="336.7861" gradientTransform="matrix(1 0 0 -1 0 410)">
				<stop  offset="0.2799" style="stop-color:#007FF8"/>
				<stop  offset="0.9141" style="stop-color:#0082FB"/>
			</linearGradient>
			<path fill="url(#SVGID_00000081637981827312156020000010402231594693661330_)" d="M338.6,55.5c-0.1,0.1-0.3,0.3-0.4,0.4
				c-10.4,11.2-20.1,23-29.1,35.4c9.5,12.1,19.3,25.6,29.5,40.7c12-18.6,23.3-33.6,34.3-45.2c0.1-0.1,0.3-0.3,0.4-0.4L338.6,55.5z"
				/>
			<path fill="#0082FB" d="M524.6,49.7c-26.7-27-58.6-42.8-92.6-42.8c-35.9,0-66.1,19.7-93.4,48.6c-0.1,0.1-0.3,0.3-0.4,0.4l34.7,31
				c0.1-0.1,0.3-0.3,0.4-0.4c17.9-18.7,35.3-28,54.6-28h0c20.7,0,40.1,9.8,56.9,26.9c0.1,0.1,0.3,0.3,0.4,0.4L525,50.1
				C524.9,50,524.8,49.8,524.6,49.7z"/>
			
				<linearGradient id="SVGID_00000165940826756239755820000010026694414457159299_" gradientUnits="userSpaceOnUse" x1="519.4965" y1="347.1393" x2="572.3949" y2="152.5488" gradientTransform="matrix(1 0 0 -1 0 410)">
				<stop  offset="0" style="stop-color:#0082FB"/>
				<stop  offset="0.9995" style="stop-color:#0081FA"/>
			</linearGradient>
			<path fill="url(#SVGID_00000165940826756239755820000010026694414457159299_)" d="M601.9,260C600.4,173.4,570,95.9,525,50.1
				c-0.1-0.1-0.3-0.3-0.4-0.4l-39.8,35.6c0.1,0.1,0.3,0.3,0.4,0.4c33.9,34.8,57.1,99.5,59.2,174.3c0,0.2,0,0.4,0,0.6l57.5,0
				C601.9,260.4,601.9,260.2,601.9,260z"/>
			
				<linearGradient id="SVGID_00000095334149366244482780000008602926003374378938_" gradientUnits="userSpaceOnUse" x1="585.1661" y1="145.1046" x2="551.6887" y2="77.453" gradientTransform="matrix(1 0 0 -1 0 410)">
				<stop  offset="6.190000e-02" style="stop-color:#0081FA"/>
				<stop  offset="1" style="stop-color:#0080F9"/>
			</linearGradient>
			<path fill="url(#SVGID_00000095334149366244482780000008602926003374378938_)" d="M601.9,260.6c0-0.2,0-0.4,0-0.6l-57.5,0
				c0,0.2,0,0.4,0,0.6c0.1,3.5,0.1,7,0.1,10.6c0,20.4-3,36.9-9.2,48.8c-0.1,0.2-0.2,0.4-0.3,0.5l42.9,44.6c0.1-0.2,0.2-0.3,0.3-0.5
				c15.6-24,23.7-57.4,23.7-97.8C601.9,264.7,601.9,262.6,601.9,260.6z"/>
			
				<linearGradient id="SVGID_00000053507320551123278600000003094391536420409998_" gradientUnits="userSpaceOnUse" x1="525.074" y1="41.5972" x2="556.368" y2="62.9116" gradientTransform="matrix(1 0 0 -1 0 410)">
				<stop  offset="0" style="stop-color:#027AF3"/>
				<stop  offset="1" style="stop-color:#0080F9"/>
			</linearGradient>
			<path fill="url(#SVGID_00000053507320551123278600000003094391536420409998_)" d="M535.3,319.9c-0.1,0.2-0.2,0.4-0.3,0.5
				c-5.4,10-13,16.7-23,19.6l19.5,61.6c2.6-0.9,5.1-1.9,7.6-3c0.7-0.3,1.5-0.7,2.2-1c0.4-0.2,0.8-0.4,1.2-0.6
				c13-6.6,24.2-16.2,32.7-28.2c0.5-0.7,1.1-1.5,1.6-2.3c0.4-0.5,0.7-1.1,1.1-1.6c0.1-0.2,0.2-0.3,0.3-0.5L535.3,319.9z"/>
			
				<linearGradient id="SVGID_00000145033912188837114570000016484392938061113221_" gradientUnits="userSpaceOnUse" x1="476.0013" y1="37.4196" x2="519.4875" y2="37.4196" gradientTransform="matrix(1 0 0 -1 0 410)">
				<stop  offset="0" style="stop-color:#0377EF"/>
				<stop  offset="0.9994" style="stop-color:#0279F1"/>
			</linearGradient>
			<path fill="url(#SVGID_00000145033912188837114570000016484392938061113221_)" d="M499.6,341.8c-6.2,0.1-12.3-1-18-3.5l-20,63
				c11.2,3.8,23.2,5.6,36.6,5.6c11.5,0.1,23-1.7,33.9-5.4l-19.5-61.5C508.4,341.2,504,341.8,499.6,341.8z"/>
			
				<linearGradient id="SVGID_00000178898542470354242270000009965154954981476240_" gradientUnits="userSpaceOnUse" x1="438.1946" y1="61.371" x2="469.4579" y2="42.978" gradientTransform="matrix(1 0 0 -1 0 410)">
				<stop  offset="1.900000e-03" style="stop-color:#0471E9"/>
				<stop  offset="1" style="stop-color:#0377EF"/>
			</linearGradient>
			<path fill="url(#SVGID_00000178898542470354242270000009965154954981476240_)" d="M459.6,320.2c-0.1-0.1-0.2-0.3-0.4-0.4
				l-46,47.9c0.1,0.1,0.3,0.3,0.4,0.4c16,17,31.3,27.6,48.6,33.4l20-63C474.8,335.4,467.8,329.7,459.6,320.2z"/>
			
				<linearGradient id="SVGID_00000003793075699013628450000006817488577965033119_" gradientUnits="userSpaceOnUse" x1="342.8285" y1="196.9957" x2="442.9765" y2="71.0791" gradientTransform="matrix(1 0 0 -1 0 410)">
				<stop  offset="0.2765" style="stop-color:#0867DF"/>
				<stop  offset="1" style="stop-color:#0471E9"/>
			</linearGradient>
			<path fill="url(#SVGID_00000003793075699013628450000006817488577965033119_)" d="M459.2,319.8c-13.8-16.1-30.9-42.8-57.8-86
				l-35-58.4l-0.3-0.5l0,0l-40.6,60.9l0,0l0,0l0.3,0.5l24.8,41.7c24,40.2,43.6,69.3,62.5,89.6c0.1,0.1,0.3,0.3,0.4,0.4l46-47.9
				C459.4,320.1,459.3,319.9,459.2,319.8z"/>
		</g>
	</g>
</g>
</svg>
